PathFileType	4	(X/Y/Z)	path1_12_0-587.trc
DataRate	CameraRate	NumFrames	NumMarkers	Units	OrigDataRate	OrigDataStartFrame	OrigNumFrames
30	30	7	22	m	30	293	587
Frame#	Time	Hip			RHip			RKnee			RAnkle			RBigToe			RSmallToe			RHeel			LHip			LKnee			LAnkle			LBigToe			LSmallToe			LHeel			Neck			Head			Nose			RShoulder			RElbow			RWrist			LShoulder			LElbow			LWrist		
		X1	Y1	Z1	X2	Y2	Z2	X3	Y3	Z3	X4	Y4	Z4	X5	Y5	Z5	X6	Y6	Z6	X7	Y7	Z7	X8	Y8	Z8	X9	Y9	Z9	X10	Y10	Z10	X11	Y11	Z11	X12	Y12	Z12	X13	Y13	Z13	X14	Y14	Z14	X15	Y15	Z15	X16	Y16	Z16	X17	Y17	Z17	X18	Y18	Z18	X19	Y19	Z19	X20	Y20	Z20	X21	Y21	Z21	X22	Y22	Z22
294	9.8	2.595109709643939	0.8392716291679756	0.6025376175938246	2.605437828827745	0.8067703492174491	0.5273338342196738	2.587536691301994	0.4697849475783744	0.5083430262219912	2.668017678446322	0.09644262137532053	0.5376395997202283	2.4725831045139817	0.031020383769513854	0.5077508059740279	2.5104157601816652	0.024275103183796658	0.4464074138899218	2.7084263457271978	0.030217957670658102	0.5339181651655641	2.588785303260848	0.8062904097517107	0.6892354175405719	2.6041957410618473	0.44206968341760156	0.6821133524052293	2.659166987905252	0.10033834376705252	0.6925102651008795	2.5017025919624256	0.012287200456036906	0.7026132474405012	2.5094152012296345	0.030169215406535815	0.7516355285748665	2.7086739708847447	0.029638803433870226	0.6877374171750237	2.562612419997512	1.4653876737747964	0.6223644090334732	2.49509834654375	1.6950152835640933	0.6010833960171378	2.4222520895637607	1.5982597231259923	0.5943003165032308	2.6187114814391528	1.3672764497089294	0.44975980102721225	2.626848364361036	1.0819778575509955	0.39991760053042785	2.6061675431465354	0.8513780749302772	0.39958511909607397	2.5634640403949125	1.3466659182969547	0.7847665261838466	2.6401137508300696	1.065341116475129	0.7993333431615028	2.6309954375930884	0.8405357555195764	0.8049821942914334
295	9.833333333333334	2.595259473495419	0.8392613795143816	0.6025612748392773	2.6053838855875404	0.8070323477917952	0.5271185958570803	2.587729105288805	0.4697668097549223	0.5084052081192155	2.6676676836695945	0.0963733296493344	0.537656403276325	2.472055384008908	0.030673191525876213	0.5077147297337447	2.5103245281305897	0.02420338372915625	0.4463327455976107	2.708925853670365	0.029955399148632968	0.5340032212218171	2.5890525420198838	0.8064660034709766	0.6888707198152804	2.6040443677414427	0.4422470732320441	0.6814310898130973	2.6580604153509144	0.10114393067829744	0.6917194497288156	2.501895945122663	0.010656634867782884	0.7027119768118343	2.508622345947186	0.03038013677148342	0.7513506074336884	2.7082817073098844	0.03006990782048517	0.6874788576803988	2.5628365859737148	1.4653868942303954	0.6226607580000558	2.497222569006067	1.6971374534328274	0.5974373695290696	2.422442360352253	1.5981827416856682	0.5942509777809278	2.618313211056951	1.3667345342877864	0.4488362320130663	2.62686931105259	1.0821462716717285	0.39972666348629504	2.6059419224738463	0.8515708794065773	0.3992988333368105	2.564014046591932	1.346656035821051	0.7847787443042077	2.6407138773137118	1.0646095208906732	0.7979916545509006	2.6311904143523615	0.8410639901995332	0.8050819741698264
296	9.866666666666667	2.5954528740739	0.8391798586251132	0.6024609781000602	2.6052145479832136	0.8071574800942277	0.5269511098400571	2.5879761504926537	0.46980695258906013	0.5084658528389886	2.6673723085441576	0.09624167220797747	0.5377064178903355	2.47230255349557	0.03030998536901114	0.5082143553423208	2.5100295899516953	0.024186106795877387	0.44624486832939525	2.709549302311193	0.02962443858178589	0.5342483544515697	2.589427056595936	0.8065159887654494	0.6885767151734786	2.6038302313262136	0.44238460813808933	0.6794568851840002	2.657124146395672	0.10177699712191182	0.691243846302046	2.502183367419348	0.009292078483386871	0.7034972260591672	2.50837532892933	0.030331802317032787	0.7512039401799054	2.7086083289349987	0.030120373017907782	0.6877896297559334	2.5630268467739055	1.4654780097486193	0.6228343261477498	2.498843440330945	1.6985094395892777	0.5935829847201617	2.422591910592958	1.598221431590951	0.5940093289946733	2.617365246027927	1.3650144992378235	0.4461081748036078	2.62688750838147	1.0822713616831177	0.39959989909595517	2.6057814983622443	0.851566017203749	0.39894951106849125	2.564533972747328	1.3466031608015625	0.7848724508036854	2.6414231554814878	1.0632950558624712	0.7954747031840781	2.6311282670831373	0.8414824024253665	0.8051512089476571
297	9.9	2.595718249542584	0.8390491381791055	0.6023391372732095	2.60516778135361	0.8070882773744268	0.5269858682768914	2.588199860082994	0.46991161260613024	0.5084854715677126	2.6672140559270643	0.09619872954681095	0.5376959295641706	2.4729842850366497	0.030065963740592835	0.5091052422135479	2.5096859765661153	0.024267315567383083	0.4462045743811159	2.7098015879711395	0.029353710623486406	0.5343578962143362	2.5896952421326143	0.8065124576174282	0.6885944822216079	2.6037557202044854	0.4423508740959266	0.6773526560258909	2.6564635077969374	0.10212699267178932	0.6907031148044892	2.502791925961702	0.008452534010210226	0.7043810668821766	2.508892593328354	0.030019764768223645	0.7511727645411396	2.7097054713452433	0.02975956734801323	0.6885983429276253	2.563159231978939	1.465626335279531	0.6228417451085086	2.4985740197771906	1.6978517683708254	0.5922101848181106	2.4227105166728236	1.59835438021717	0.593659388310367	2.6161801478554585	1.3626578734310142	0.4423543609455735	2.6268901636100552	1.0823684461924705	0.39956681961410034	2.605618728675647	0.8513785921440277	0.3985195011493433	2.5649881665637144	1.3465684973879433	0.7850375972342892	2.641896296375885	1.0621667897223948	0.7930999152900985	2.63091227763861	0.8417522730931447	0.8052575943937901
298	9.933333333333334	2.5959219806824065	0.8389305014609842	0.602292031044496	2.605322775050126	0.8067140699040545	0.5271432581713101	2.5883350988263327	0.47006123482587425	0.5084162452962738	2.6672572142464532	0.09628302731280611	0.5374984667862269	2.473687330201488	0.030017354541727985	0.5099269602806439	2.5094682496122016	0.0244099113544861	0.446225274669374	2.7096270263901276	0.029153374620685506	0.5341222244380478	2.5896184325204503	0.8063712056060254	0.6888836804355223	2.603895404128635	0.4421354417045148	0.6757102270920926	2.6562528333820294	0.10183246446429808	0.6895262829890829	2.5035829780126866	0.008321143944906458	0.7044856301421409	2.5101969905996584	0.029512067632018597	0.7512781266534582	2.7110926738390857	0.029177553986666896	0.6896328185421807	2.563150368053794	1.4658041251973104	0.6226567853259478	2.4971312551678397	1.6955935899091596	0.5940551306071951	2.422781699430325	1.5986252827833336	0.5934738166410751	2.6151658688974573	1.3604778521632523	0.43883408779018673	2.6268590301643586	1.0824733117517975	0.399614797343477	2.605424539414623	0.8510987188680322	0.3980567118221001	2.5653004229763345	1.3465677733470756	0.7852210162258173	2.641793836797165	1.0619951809099826	0.7921943658506757	2.6306964904837566	0.8419530379952187	0.8053710101468186
299	9.966666666666669	2.5959102547781607	0.8388842713017355	0.6023611876270825	2.6055557130296245	0.806035532010972	0.527213781853396	2.5883477722379364	0.4701970379225292	0.508262299442263	2.667516024317939	0.09640175858126243	0.5370734085035304	2.4742720991099167	0.030198655204119032	0.5102492962783727	2.5094255821711884	0.024534914529178952	0.44624253454681667	2.709332582078782	0.02893590159385865	0.5335315342492117	2.5891470632803664	0.8060146544299441	0.6892254339170012	2.60416804858505	0.44182258504910693	0.6745274674086079	2.6568851690190733	0.1004552386116857	0.6876636004321475	2.5041785349611203	0.008960402709166726	0.7035076929174057	2.512067076953733	0.02895168838533006	0.7515636335784246	2.712308096359097	0.028582647513754517	0.690662146967697	2.5629504917856227	1.465991644295189	0.62230737782347	2.49643736865519	1.6934236856663314	0.5973778499724172	2.4228093530310577	1.5990923976199805	0.5936579057266195	2.6145782617672757	1.3590910050843361	0.4365509582890845	2.626771957933161	1.0826137825187654	0.3996958093189974	2.605243752042083	0.8508149097157415	0.39765446698750384	2.565408060902797	1.3465836475735862	0.785362540848179	2.6410325773687804	1.0630259691400932	0.7931783963088646	2.6305784023483927	0.8421979303185326	0.8053632143837894
300	10.0	2.5956681256068777	0.8388975019774105	0.6025253350138673	2.605712205929927	0.8052081513509901	0.5270746744748793	2.5882373053758307	0.4702691309310056	0.5080919067171699	2.667908278266902	0.09647196308176749	0.536496671287679	2.4746978720325683	0.030582339133204052	0.5099187402677773	2.509490782053884	0.024576625547525207	0.44617840309189427	2.709302963500177	0.02863233196630916	0.5327421836299666	2.5884344596019844	0.805507129105798	0.68944784117579	2.604446746030689	0.44148493426717306	0.6736350745143205	2.6585864215813975	0.09787788816784831	0.6854539934971267	2.504253695935947	0.010229083257499312	0.7019057099212974	2.5141988409759026	0.028451603715997323	0.7520472024523293	2.7132323514406558	0.028067017233640894	0.6915848491998478	2.5626158055915553	1.466171496998189	0.6219038651638845	2.4974815740277285	1.6925907209592326	0.5997858499532908	2.422834327776924	1.599702429853751	0.5941703711998809	2.614344965546567	1.3584873066249123	0.4354995296842907	2.626615396327008	1.0827919937435722	0.3997541902858584	2.6051464114636147	0.8505799058559399	0.3973845849169501	2.565304414394887	1.3465818534879135	0.785423002687937	2.6398743777461253	1.0648106917445053	0.7953074844594685	2.630547155442721	0.8425412827876203	0.8051240816503773
